<?xml version="1.0" encoding="iso-8859-1"?>
<!-- Generator: Adobe Illustrator 24.1.2, SVG Export Plug-In . SVG Version: 6.00 Build 0)  -->
<svg version="1.1" baseProfile="basic" id="Layer_1_1_"
	 xmlns="http://www.w3.org/2000/svg" xmlns:xlink="http://www.w3.org/1999/xlink" x="0px" y="0px" viewBox="0 0 64 64"
	 xml:space="preserve">
<linearGradient id="SVGID_1_" gradientUnits="userSpaceOnUse" x1="32" y1="8" x2="32" y2="56">
	<stop  offset="0" style="stop-color:#1A6DFF"/>
	<stop  offset="1" style="stop-color:#C822FF"/>
</linearGradient>
<path style="fill:url(#SVGID_1_);" d="M37.586,56H11c-1.654,0-3-1.346-3-3V26.414c0-0.801,0.312-1.555,0.879-2.121L24.293,8.879
	C24.859,8.313,25.613,8,26.414,8H53c1.654,0,3,1.346,3,3v26.586c0,0.801-0.313,1.555-0.879,2.121L39.707,55.121
	C39.141,55.688,38.387,56,37.586,56z M26.414,10c-0.263,0-0.521,0.106-0.707,0.293L10.293,25.707C10.106,25.894,10,26.151,10,26.414
	V53c0,0.552,0.448,1,1,1h26.586c0.263,0,0.521-0.106,0.707-0.293l15.414-15.414C53.894,38.106,54,37.849,54,37.586V11
	c0-0.552-0.448-1-1-1H26.414z"/>
<linearGradient id="SVGID_2_" gradientUnits="userSpaceOnUse" x1="32" y1="12" x2="32" y2="52">
	<stop  offset="0" style="stop-color:#6DC7FF"/>
	<stop  offset="1" style="stop-color:#E6ABFF"/>
</linearGradient>
<path style="fill:url(#SVGID_2_);" d="M26.829,12L12,26.829V52h25.171L52,37.171V12H26.829z M42,25H32c-2.761,0-5,2.239-5,5
	s2.239,5,5,5h10v6H32c-6.075,0-11-4.925-11-11s4.925-11,11-11h10V25z"/>
</svg>